<svg width="486" height="139" viewBox="0 0 486 139" fill="none" xmlns="http://www.w3.org/2000/svg">
<path fill-rule="evenodd" clip-rule="evenodd" d="M49.2301 1.13179C45.2531 2.97879 41.1971 7.40579 39.2831 11.9868C37.0321 17.3748 37.0031 60.4618 39.2471 64.8018C43.2411 72.5258 55.2191 72.5258 59.2131 64.8018C61.5061 60.3668 61.4481 18.6098 59.1461 16.6988C57.9971 15.7458 57.1051 15.6728 55.8961 16.4348C54.4391 17.3538 54.1961 20.2148 53.9601 39.2988C53.7861 53.3348 53.2971 61.5858 52.5881 62.4408C51.2141 64.0948 47.5271 64.1658 45.9301 62.5688C45.0661 61.7048 44.7301 54.8908 44.7301 38.2168C44.7301 15.7548 44.7981 14.9628 47.0171 11.6668C51.6401 4.79679 61.7131 4.39479 67.1561 10.8638L69.7301 13.9218V39.3858C69.7301 67.9098 69.4451 69.2998 62.3161 75.5588C54.6221 82.3148 43.7981 82.2788 36.0461 75.4728C29.2491 69.5058 28.7771 67.2448 28.7521 40.5898C28.7331 20.4178 28.4971 16.6788 27.1591 15.3398C25.2731 13.4538 24.5111 13.3878 22.9301 14.9688C22.0611 15.8378 21.7331 22.9468 21.7401 40.7188C21.7491 64.3388 21.8381 65.4588 24.0851 70.2688C29.3601 81.5648 37.2911 86.7688 49.2301 86.7688C58.4011 86.7688 65.2701 83.5568 70.6461 76.7558C76.4531 69.4098 76.8791 66.5858 76.5351 37.6928C76.2351 12.5458 76.1901 12.0578 73.8201 8.60279C69.9101 2.90079 65.3801 0.392795 58.3611 0.0437948C54.6031 -0.143205 51.0691 0.277792 49.2301 1.13179ZM0.776058 58.2128C-0.787942 60.0978 0.087055 68.5228 2.72605 77.0048C7.57405 92.5798 22.0321 105.697 38.3541 109.329L45.7301 110.97V121.337V131.703L34.5871 131.986C25.6291 132.214 23.2441 132.586 22.4281 133.883C21.8691 134.771 21.6941 136.233 22.0391 137.133C22.5991 138.591 25.5601 138.769 49.2301 138.769C72.9001 138.769 75.8611 138.591 76.4211 137.133C76.7661 136.233 76.5911 134.771 76.0321 133.883C75.2161 132.586 72.8311 132.214 63.8731 131.986L52.7301 131.703V121.337V110.97L60.0511 109.341C73.5941 106.328 87.1921 95.6998 93.1911 83.4388C96.3201 77.0418 99.2871 63.1228 98.3311 59.3158C97.7811 57.1228 97.1731 56.6988 94.9451 56.9558C92.3721 57.2528 92.2001 57.6078 91.6571 63.7688C90.0411 82.1178 78.5931 96.5978 61.4951 101.919C40.8441 108.347 17.2431 96.9368 9.68106 76.8708C8.56306 73.9018 7.32806 68.2768 6.93906 64.3708C6.32306 58.2048 5.95506 57.2298 4.14206 56.9708C2.99406 56.8068 1.48006 57.3658 0.776058 58.2128Z" fill="black"/>
<path d="M180.557 89L170.742 75.025C169.529 75.1117 168.575 75.155 167.882 75.155H156.637V89H150.137V43.5H167.882C173.775 43.5 178.412 44.9083 181.792 47.725C185.172 50.5417 186.862 54.42 186.862 59.36C186.862 62.87 185.995 65.86 184.262 68.33C182.529 70.8 180.059 72.5983 176.852 73.725L187.642 89H180.557ZM167.687 69.63C171.804 69.63 174.945 68.7417 177.112 66.965C179.279 65.1883 180.362 62.6533 180.362 59.36C180.362 56.0667 179.279 53.5533 177.112 51.82C174.945 50.0433 171.804 49.155 167.687 49.155H156.637V69.63H167.687ZM227.589 71.97C227.589 72.4467 227.545 73.075 227.459 73.855H199.509C199.899 76.8883 201.22 79.3367 203.474 81.2C205.77 83.02 208.609 83.93 211.989 83.93C216.105 83.93 219.42 82.5433 221.934 79.77L225.379 83.8C223.819 85.62 221.869 87.0067 219.529 87.96C217.232 88.9133 214.654 89.39 211.794 89.39C208.154 89.39 204.925 88.6533 202.109 87.18C199.292 85.6633 197.104 83.5617 195.544 80.875C194.027 78.1883 193.269 75.155 193.269 71.775C193.269 68.4383 194.005 65.4267 195.479 62.74C196.995 60.0533 199.054 57.9733 201.654 56.5C204.297 54.9833 207.265 54.225 210.559 54.225C213.852 54.225 216.777 54.9833 219.334 56.5C221.934 57.9733 223.949 60.0533 225.379 62.74C226.852 65.4267 227.589 68.5033 227.589 71.97ZM210.559 59.49C207.569 59.49 205.055 60.4 203.019 62.22C201.025 64.04 199.855 66.4233 199.509 69.37H221.609C221.262 66.4667 220.07 64.105 218.034 62.285C216.04 60.4217 213.549 59.49 210.559 59.49ZM251.268 89.39C247.758 89.39 244.617 88.6317 241.843 87.115C239.113 85.5983 236.968 83.5183 235.408 80.875C233.848 78.1883 233.068 75.155 233.068 71.775C233.068 68.395 233.848 65.3833 235.408 62.74C236.968 60.0533 239.113 57.9733 241.843 56.5C244.617 54.9833 247.758 54.225 251.268 54.225C254.388 54.225 257.162 54.8533 259.588 56.11C262.058 57.3667 263.965 59.1867 265.308 61.57L260.563 64.625C259.48 62.9783 258.137 61.7433 256.533 60.92C254.93 60.0967 253.153 59.685 251.203 59.685C248.95 59.685 246.913 60.1833 245.093 61.18C243.317 62.1767 241.908 63.6067 240.868 65.47C239.872 67.29 239.373 69.3917 239.373 71.775C239.373 74.2017 239.872 76.3467 240.868 78.21C241.908 80.03 243.317 81.4383 245.093 82.435C246.913 83.4317 248.95 83.93 251.203 83.93C253.153 83.93 254.93 83.5183 256.533 82.695C258.137 81.8717 259.48 80.6367 260.563 78.99L265.308 81.98C263.965 84.3633 262.058 86.205 259.588 87.505C257.162 88.7617 254.388 89.39 251.268 89.39ZM287.634 89.39C284.211 89.39 281.134 88.6317 278.404 87.115C275.674 85.5983 273.529 83.5183 271.969 80.875C270.453 78.1883 269.694 75.155 269.694 71.775C269.694 68.395 270.453 65.3833 271.969 62.74C273.529 60.0533 275.674 57.9733 278.404 56.5C281.134 54.9833 284.211 54.225 287.634 54.225C291.058 54.225 294.113 54.9833 296.799 56.5C299.529 57.9733 301.653 60.0533 303.169 62.74C304.729 65.3833 305.509 68.395 305.509 71.775C305.509 75.155 304.729 78.1883 303.169 80.875C301.653 83.5183 299.529 85.5983 296.799 87.115C294.113 88.6317 291.058 89.39 287.634 89.39ZM287.634 83.93C289.844 83.93 291.816 83.4317 293.549 82.435C295.326 81.395 296.713 79.965 297.709 78.145C298.706 76.2817 299.204 74.1583 299.204 71.775C299.204 69.3917 298.706 67.29 297.709 65.47C296.713 63.6067 295.326 62.1767 293.549 61.18C291.816 60.1833 289.844 59.685 287.634 59.685C285.424 59.685 283.431 60.1833 281.654 61.18C279.921 62.1767 278.534 63.6067 277.494 65.47C276.498 67.29 275.999 69.3917 275.999 71.775C275.999 74.1583 276.498 76.2817 277.494 78.145C278.534 79.965 279.921 81.395 281.654 82.435C283.431 83.4317 285.424 83.93 287.634 83.93ZM347.094 54.55V84.32C347.094 90.3433 345.599 94.785 342.609 97.645C339.619 100.548 335.156 102 329.219 102C325.969 102 322.871 101.545 319.924 100.635C316.977 99.7683 314.594 98.5117 312.774 96.865L315.764 92.055C317.367 93.4417 319.339 94.525 321.679 95.305C324.062 96.1283 326.511 96.54 329.024 96.54C333.054 96.54 336.022 95.5867 337.929 93.68C339.879 91.7733 340.854 88.87 340.854 84.97V82.24C339.381 84.0167 337.561 85.36 335.394 86.27C333.271 87.1367 330.952 87.57 328.439 87.57C325.146 87.57 322.156 86.8767 319.469 85.49C316.826 84.06 314.746 82.0883 313.229 79.575C311.712 77.0183 310.954 74.115 310.954 70.865C310.954 67.615 311.712 64.7333 313.229 62.22C314.746 59.6633 316.826 57.6917 319.469 56.305C322.156 54.9183 325.146 54.225 328.439 54.225C331.039 54.225 333.444 54.7017 335.654 55.655C337.907 56.6083 339.749 58.0167 341.179 59.88V54.55H347.094ZM329.154 82.11C331.407 82.11 333.422 81.6333 335.199 80.68C337.019 79.7267 338.427 78.405 339.424 76.715C340.464 74.9817 340.984 73.0317 340.984 70.865C340.984 67.5283 339.879 64.8417 337.669 62.805C335.459 60.725 332.621 59.685 329.154 59.685C325.644 59.685 322.784 60.725 320.574 62.805C318.364 64.8417 317.259 67.5283 317.259 70.865C317.259 73.0317 317.757 74.9817 318.754 76.715C319.794 78.405 321.202 79.7267 322.979 80.68C324.799 81.6333 326.857 82.11 329.154 82.11ZM377.412 54.225C381.789 54.225 385.255 55.5033 387.812 58.06C390.412 60.5733 391.712 64.2783 391.712 69.175V89H385.472V69.89C385.472 66.5533 384.67 64.04 383.067 62.35C381.464 60.66 379.167 59.815 376.177 59.815C372.797 59.815 370.132 60.8117 368.182 62.805C366.232 64.755 365.257 67.5717 365.257 71.255V89H359.017V54.55H364.997V59.75C366.254 57.9733 367.944 56.6083 370.067 55.655C372.234 54.7017 374.682 54.225 377.412 54.225ZM403.26 54.55H409.5V89H403.26V54.55ZM406.38 47.92C405.167 47.92 404.149 47.53 403.325 46.75C402.545 45.97 402.155 45.0167 402.155 43.89C402.155 42.7633 402.545 41.81 403.325 41.03C404.149 40.2067 405.167 39.795 406.38 39.795C407.594 39.795 408.59 40.185 409.37 40.965C410.194 41.7017 410.605 42.6333 410.605 43.76C410.605 44.93 410.194 45.9267 409.37 46.75C408.59 47.53 407.594 47.92 406.38 47.92ZM446.96 83.865V89H418.1V84.97L438.445 59.685H418.49V54.55H446.44V58.645L426.095 83.865H446.96ZM485.938 71.97C485.938 72.4467 485.895 73.075 485.808 73.855H457.858C458.248 76.8883 459.57 79.3367 461.823 81.2C464.12 83.02 466.958 83.93 470.338 83.93C474.455 83.93 477.77 82.5433 480.283 79.77L483.728 83.8C482.168 85.62 480.218 87.0067 477.878 87.96C475.582 88.9133 473.003 89.39 470.143 89.39C466.503 89.39 463.275 88.6533 460.458 87.18C457.642 85.6633 455.453 83.5617 453.893 80.875C452.377 78.1883 451.618 75.155 451.618 71.775C451.618 68.4383 452.355 65.4267 453.828 62.74C455.345 60.0533 457.403 57.9733 460.003 56.5C462.647 54.9833 465.615 54.225 468.908 54.225C472.202 54.225 475.127 54.9833 477.683 56.5C480.283 57.9733 482.298 60.0533 483.728 62.74C485.202 65.4267 485.938 68.5033 485.938 71.97ZM468.908 59.49C465.918 59.49 463.405 60.4 461.368 62.22C459.375 64.04 458.205 66.4233 457.858 69.37H479.958C479.612 66.4667 478.42 64.105 476.383 62.285C474.39 60.4217 471.898 59.49 468.908 59.49Z" fill="black"/>
</svg>
