<?xml version="1.0" encoding="UTF-8"?><!DOCTYPE svg PUBLIC "-//W3C//DTD SVG 1.1//EN" "http://www.w3.org/Graphics/SVG/1.1/DTD/svg11.dtd"><svg xmlns="http://www.w3.org/2000/svg"><symbol id="icon-arrow-down" viewBox="0 0 14 9">
    <path fill-rule="evenodd" clip-rule="evenodd" d="M13.69.277a1 1 0 0 1 .033 1.414l-6 6.278a1 1 0 0 1-1.446 0l-6-6.278A1 1 0 0 1 1.723.309L7 5.83 12.277.31a1 1 0 0 1 1.414-.033z"/>
</symbol><symbol id="icon-arrow-next" viewBox="0 0 16 11">
    <path d="M10.146 10.854a.5.5 0 0 1-.057-.638l.057-.07L14.293 6H.5a.5.5 0 0 1-.09-.992L.5 5h13.793L10.146.854a.5.5 0 0 1-.057-.638l.057-.07a.5.5 0 0 1 .638-.057l.07.057 5 5 .011.013a.503.503 0 0 1 .033.039l-.044-.052A.502.502 0 0 1 16 5.5v.01a.503.503 0 0 1-.005.064L16 5.5a.502.502 0 0 1-.089.284l-.013.018a.503.503 0 0 1-.033.04l-.011.012-5 5a.5.5 0 0 1-.708 0z"/>
</symbol><symbol id="icon-arrow-prev" viewBox="0 0 16 11">
    <path d="M5.854.146a.5.5 0 0 1 .057.638l-.057.07L1.707 5H15.5a.5.5 0 0 1 .09.992L15.5 6H1.707l4.147 4.146a.5.5 0 0 1 .057.638l-.057.07a.5.5 0 0 1-.638.057l-.07-.057-5-5-.011-.013a.503.503 0 0 1-.033-.039l.044.052A.502.502 0 0 1 0 5.5v-.01c0-.022.002-.043.005-.064L0 5.5a.502.502 0 0 1 .089-.284l.013-.018a.503.503 0 0 1 .033-.04l.011-.012 5-5a.5.5 0 0 1 .708 0z"/>
</symbol><symbol id="icon-arrow-right" viewBox="0 0 8 14">
    <path d="M.293.293A1 1 0 0 1 1.613.21l.094.083 6 6a1 1 0 0 1 .083 1.32l-.083.094-6 6a1 1 0 0 1-1.497-1.32l.083-.094L5.585 7 .293 1.707A1 1 0 0 1 .21.387L.293.293z"/>
</symbol><symbol id="icon-search" viewBox="0 0 21 21">
    <path fill-rule="evenodd" clip-rule="evenodd" d="M1.528 9.767a8.239 8.239 0 1 1 16.478 0 8.239 8.239 0 0 1-16.478 0zM9.767.028c-5.379 0-9.74 4.36-9.74 9.74 0 5.378 4.361 9.738 9.74 9.738 2.3 0 4.415-.797 6.08-2.131l3.165 3.156a.75.75 0 0 0 1.06-1.062l-3.128-3.119a9.704 9.704 0 0 0 2.562-6.583c0-5.378-4.36-9.739-9.74-9.739z"/>
</symbol><symbol id="icon-star" viewBox="0 0 16 16">
    <path fill-rule="evenodd" clip-rule="evenodd" d="M8 13.738l-3.908 2.147a.937.937 0 0 1-1.292-.42 1.04 1.04 0 0 1-.096-.634l.746-4.547L.29 7.064A1.032 1.032 0 0 1 .272 5.65a.943.943 0 0 1 .547-.292l4.37-.663L7.141.558c.234-.496.808-.699 1.281-.455a.98.98 0 0 1 .435.455l1.954 4.137 4.369.663c.523.08.885.587.809 1.133-.03.218-.128.419-.28.572l-3.16 3.22.746 4.548c.09.544-.26 1.061-.781 1.154a.92.92 0 0 1-.607-.1L8 13.738z"/>
</symbol></svg>